<?xml version="1.0" encoding="UTF-8" standalone="no"?>
<svg
        xmlns:dc="http://purl.org/dc/elements/1.1/"
        xmlns:cc="http://creativecommons.org/ns#"
        xmlns:rdf="http://www.w3.org/1999/02/22-rdf-syntax-ns#"
        xmlns:svg="http://www.w3.org/2000/svg"
        xmlns="http://www.w3.org/2000/svg"
        xmlns:sodipodi="http://sodipodi.sourceforge.net/DTD/sodipodi-0.dtd"
        xmlns:inkscape="http://www.inkscape.org/namespaces/inkscape"
        version="1.1"
        id="svg2"
        xml:space="preserve"
        width="4000"
        height="3333.3333"
        viewBox="0 0 4000 3333.3333"
        sodipodi:docname="IS.ai"><metadata
     id="metadata8"><rdf:RDF><cc:Work
         rdf:about=""><dc:format>image/svg+xml</dc:format><dc:type
        rdf:resource="http://purl.org/dc/dcmitype/StillImage" /></cc:Work></rdf:RDF></metadata><defs
        id="defs6"><linearGradient
       x1="0"
       y1="0"
       x2="1"
       y2="0"
       gradientUnits="userSpaceOnUse"
       gradientTransform="matrix(1e-7,-1914.882,-1914.882,-1e-7,1539.2169,2519.5464)"
       spreadMethod="pad"
       id="linearGradient30"><stop
         style="stop-opacity:1;stop-color:#7b1648"
         offset="0"
         id="stop24" /><stop
        style="stop-opacity:1;stop-color:#7b1648"
        offset="0.29078014"
        id="stop26" /><stop
        style="stop-opacity:1;stop-color:#553244"
        offset="1"
        id="stop28" /></linearGradient><clipPath
        clipPathUnits="userSpaceOnUse"
        id="clipPath40"><path
         d="M 0,2500 H 3000 V 0 H 0 Z"
         id="path38" /></clipPath></defs><sodipodi:namedview
        pagecolor="#ffffff"
        bordercolor="#666666"
        borderopacity="1"
        objecttolerance="10"
        gridtolerance="10"
        guidetolerance="10"
        inkscape:pageopacity="0"
        inkscape:pageshadow="2"
        inkscape:window-width="640"
        inkscape:window-height="480"
        id="namedview4" /><g
        id="g10"
        inkscape:groupmode="layer"
        inkscape:label="IS"
        transform="matrix(1.3333333,0,0,-1.3333333,0,3333.3333)"><g
       id="g12"><g
         id="g14"><g
           id="g20"><g
             id="g22"><path
               d="m 1515.705,2302.648 c -8.088,0 -16.174,-0.287 -24.236,-0.938 v 0 c -83.142,-6.714 -168.286,-27.159 -245.649,-57.207 v 0 c -73.173,-28.421 -142.382,-66.398 -207.081,-110.74 v 0 C 812.919,1978.995 632.84,1784.039 520.12,1531.684 v 0 c -26.862,-60.135 -45.561,-123.742 -56.413,-188.677 v 0 c -11.088,-66.35 -12.963,-131.603 -6.917,-195.409 v 0 C 472.268,984.222 539.668,830.32 637.276,691.727 v 0 c 11.336,-16.095 13.118,-29.632 7.973,-48.006 v 0 c -18.725,-66.868 -35.855,-134.182 -54.72,-205.75 v 0 c -0.331,-1.251 0.795,-2.404 2.053,-2.096 v 0 c 21.948,5.399 135.61,35.03 186.26,49.907 v 0 c 18.452,5.42 30.361,0.867 43.724,-12.118 v 0 c 90.97,-88.397 189.981,-166.392 301.164,-228.206 v 0 C 1396.117,94.021 1670.716,89.012 1943.513,240.68 v 0 c 321.908,178.972 634.087,510.445 677.056,891.18 v 0 c 21.361,189.276 -35.629,374.808 -133.687,535.556 v 0 c -19.262,31.576 -26.58,58.163 -16.287,96.054 v 0 c 10.926,40.22 9.489,83.694 -8.139,121.819 v 0 c -16.083,34.784 -44.496,62.518 -78.706,79.461 v 0 c -18.594,9.21 -38.383,14.891 -58.788,18.335 v 0 c -12.596,2.126 -25.391,1.987 -38.169,1.85 v 0 c -14.899,-0.162 -29.775,-0.323 -44.282,3.106 v 0 c -23.591,5.574 -43.404,20.531 -61.334,36.188 v 0 c -128.598,112.289 -270.283,203.322 -437.094,248.068 v 0 c -32.504,8.719 -65.805,14.461 -99.188,19.902 v 0 c -42.455,6.919 -85.393,10.449 -128.409,10.449 v 0 z"
               style="fill:url(#linearGradient30);stroke:none"
               id="path32" /></g></g></g></g><g
        id="g34"><g
         id="g36"
         clip-path="url(#clipPath40)"><g
           id="g42"
           transform="translate(2095.4937,1513.047)"><path
             d="m 0,0 c 21.47,70.499 42.151,138.409 64.305,211.157 -42.153,1.409 -80.821,2.89 -119.5,3.952 -63.558,1.744 -127.139,2.752 -190.672,5.112 -16.859,0.627 -24.603,-5.174 -29.452,-21.374 -20.976,-70.071 -43.508,-139.674 -64.869,-209.632 -17.176,-56.25 3.046,-98.002 60.261,-112.651 40.101,-10.268 82.498,-11.517 123.843,-16.998 76.787,-10.181 147.318,-34.603 204.301,-89.913 67.561,-65.578 88.974,-145.433 64.252,-234.529 C 83.375,-569.732 52.23,-674.313 15.34,-776.621 c -30.633,-84.957 -105.777,-119.136 -188.717,-127.811 -56.426,-5.901 -114.441,4.752 -171.788,6.009 -110.536,2.424 -221.105,3.32 -331.654,5.149 -18.22,0.302 -36.664,0.596 -54.576,3.52 -77.498,12.653 -113.336,69.442 -90.648,144.59 24.924,82.555 50.971,164.775 77.401,246.86 2.413,7.494 11.073,18.426 16.979,18.52 78.152,1.243 156.33,0.829 238.977,0.829 -21.226,-67.295 -42.268,-134.008 -64.334,-203.963 11.195,-0.608 19.419,-1.123 27.649,-1.492 93.961,-4.218 187.96,-7.774 281.852,-13.186 17.539,-1.011 24.48,3.537 29.477,19.801 21.224,69.097 44.312,137.621 65.536,206.718 18.027,58.692 -3.069,99.754 -61.577,117.571 -23.873,7.27 -49.428,10.403 -74.451,12.242 -62.026,4.561 -122.972,13.24 -180.831,37.416 -124.025,51.822 -170.004,148.356 -130.524,276.752 27.642,89.893 59.908,178.474 84.545,269.153 31.262,115.058 162.998,183.594 246.223,183.762 155.969,0.315 311.953,0.608 467.906,-1.196 93.058,-1.077 150.632,-78.247 126.184,-167.717 C 305.566,171.264 279.434,86.367 254.515,1.138 250.998,-10.889 248.166,-20.968 230.579,-19.454 159.418,-13.327 88.115,-8.869 16.873,-3.663 12.65,-3.354 8.512,-1.889 0,0"
             style="fill:#ffffff;fill-opacity:1;fill-rule:nonzero;stroke:none"
             id="path44" /></g><g
        id="g46"
        transform="translate(1317.6871,1936.6187)"><path
             d="m 0,0 c -45.178,-144.943 -90.446,-286.764 -133.571,-429.234 -92.603,-305.922 -184.382,-612.096 -275.474,-918.471 -6.646,-22.354 -16.604,-32.099 -39.439,-36.866 -69.774,-14.563 -138.943,-32.026 -212.208,-49.269 1.492,8.785 2.152,15.981 3.966,22.874 123.044,467.561 259.914,931.116 403.445,1392.744 3.854,12.398 7.278,22.128 23.759,21.945 C -157.209,2.922 -84.885,3.184 -12.566,2.915 -9.349,2.903 -6.138,1.471 0,0"
             style="fill:#ffffff;fill-opacity:1;fill-rule:nonzero;stroke:none"
             id="path48" /></g></g></g></g></svg>
